<svg xmlns="http://www.w3.org/2000/svg" viewBox="0 0 180 180" xml:space="preserve"><path fill="#F2F2F2" d="M154.623 90c0 35.69-28.934 64.623-64.623 64.623-35.689 0-64.622-28.932-64.622-64.623C25.377 54.31 54.31 25.378 90 25.378c35.689 0 64.623 28.932 64.623 64.622z"/><path fill="#EA6F4E" d="M88.803 97.794v42.352s-.893 7.396-7.146 7.576c0 0-7.056 1.787-10.451-3.484 0 0-6.79-.266-8.754-7.77 0 0-3.863-2.088-3.157-8.931 0 0-3.714-4.816 0-9.109 0 0-2.202-4.824 2.354-8.396 0 0-.27-6.342 5.895-8.308 0 0 .893-4.465 8.844-4.912 0 0 1.25-4.198 6.252-4.021 5.003.179 5.627 3.931 6.163 5.003z"/><path fill="#FF916E" d="M87.285 97.743s-2.984-5.992-8.638-2.225c0 0-3.768 4.083 0 7.695 0 0 3.325-.954 4.576-.417 0 0 .446.178.179.803 0 0-.894 1.34.178 3.305 0 0 .268 1.34-.803.626 0 0-3.217-1.608-5.182-3.305 0 0-2.322-1.52-2.054-5.807 0 0-4.734-.625-7.057 4.466 0 0-5.271.982-5.092 6.968 0 0 .268 6.61 5.984 7.859 0 0 2.143.269 3.484 0 0 0-.813-2.835-.447-3.751.158-.395 1.011-1.274 1.697-.089 0 0-1.34 5.984 4.555 6.162 0 0 6.516-2.322 8.618-10.985V97.743z"/><path fill="#FF916E" d="M70.211 127.804s-3.781 2.769-7.979.358c0 0-5.896-2.412-1.34-9.289 0 0-2.055-4.466 1.072-6.967 0 0 1.161 8.39 10.631 6.782 0 0-.896 3.936 1.07 4.472 0 0 8.657-.179 13.619-8.843v25.828s-1.471 6.684-7.725 6.596c0 0-7.503-.061-8.665-6.596 0 0-1.16-4.84 2.503-7.518 0 0-.09-1.875-1.52-.982 0 0-4.556 4.197-1.876 10.809 0 0-4.206-.092-6.614-6.791 0 0-3.39-2.678-3.032-6.697 0 0 3.662 2.144 6.699 1.562 0 0 2.859-.67 3.482-1.562 0 0 3.753 3.839 8.934.982 0 0 1.071 1.34 1.965.58l-1.785-3.795-1.073 2.056s-4.287 2.406-7.593-1.655l-.773.67z"/><path fill="#EA6F4E" d="M91.196 97.794v42.352s.893 7.396 7.146 7.576c0 0 7.056 1.787 10.451-3.484 0 0 6.789-.266 8.755-7.77 0 0 3.862-2.088 3.155-8.931 0 0 3.714-4.816 0-9.109 0 0 2.203-4.824-2.354-8.396 0 0 .269-6.342-5.894-8.308 0 0-.893-4.465-8.844-4.912 0 0-1.25-4.198-6.252-4.021-5.002.179-5.627 3.931-6.163 5.003z"/><path fill="#FF916E" d="M92.714 97.743s2.984-5.992 8.637-2.225c0 0 3.768 4.083 0 7.695 0 0-3.325-.954-4.575-.417 0 0-.446.178-.18.803 0 0 .895 1.34-.177 3.305 0 0-.269 1.34.803.626 0 0 3.217-1.608 5.181-3.305 0 0 2.323-1.52 2.055-5.807 0 0 4.734-.625 7.058 4.466 0 0 5.27.982 5.091 6.968 0 0-.269 6.61-5.984 7.859 0 0-2.144.269-3.484 0 0 0 .813-2.835.447-3.751-.159-.395-1.011-1.274-1.697-.089 0 0 1.34 5.984-4.556 6.162 0 0-6.515-2.322-8.617-10.985V97.743z"/><path fill="#FF916E" d="M109.788 127.804s3.78 2.769 7.979.358c0 0 5.896-2.412 1.34-9.289 0 0 2.055-4.466-1.072-6.967 0 0-1.162 8.39-10.631 6.782 0 0 .896 3.936-1.07 4.472 0 0-8.658-.179-13.619-8.843v25.828s1.471 6.684 7.725 6.596c0 0 7.502-.061 8.664-6.596 0 0 1.161-4.84-2.502-7.518 0 0 .09-1.875 1.52-.982 0 0 4.555 4.197 1.876 10.809 0 0 4.206-.092 6.614-6.791 0 0 3.39-2.678 3.032-6.697 0 0-3.663 2.144-6.699 1.562 0 0-2.858-.67-3.483-1.562 0 0-3.752 3.839-8.933.982 0 0-1.072 1.34-1.965.58l1.786-3.795 1.071 2.056s4.288 2.406 7.594-1.655l.773.67z"/><path fill-rule="evenodd" clip-rule="evenodd" fill="#FFDB76" d="M57.587 55.187h61.014v18.161H57.587z"/><path fill-rule="evenodd" clip-rule="evenodd" fill="#FFDB76" d="M57.587 64.267h61.014v9.081H57.587z"/><path fill-rule="evenodd" clip-rule="evenodd" fill="#333" d="M108.333 55.187h2.279v18.161h-2.279zM97.465 55.187h2.279v18.161h-2.279zM61.751 55.187h2.279v18.161h-2.279zM103.848 61.213a1.747 1.747 0 1 1 0-3.494 1.747 1.747 0 0 1 0 3.494z"/><path fill-rule="evenodd" clip-rule="evenodd" fill="#333" d="M103.848 66.014a1.747 1.747 0 1 1 0-3.496 1.747 1.747 0 0 1 0 3.496z" opacity=".6"/><path fill-rule="evenodd" clip-rule="evenodd" fill="#333" d="M103.848 70.818a1.747 1.747 0 1 1 0-3.494 1.747 1.747 0 0 1 0 3.494z" opacity=".2"/><g><path fill-rule="evenodd" clip-rule="evenodd" fill="#ADEBF6" d="m60.658 103.252.028-13.158 67.273.148-.028 13.158z"/><path fill-rule="evenodd" clip-rule="evenodd" fill="#ADEBF6" d="m127.932 103.404.013-5.361-67.275-.389-.01 5.599z"/><path fill-rule="evenodd" clip-rule="evenodd" fill="#FFDB76" d="m118.599 103.38.029-13.158 1.965.004-.03 13.158zM111.809 103.363l.029-13.158 1.965.005-.03 13.158z"/><path fill-rule="evenodd" clip-rule="evenodd" fill="#333" d="m103.585 96.797 1.704-1.695 1.693 1.702-1.704 1.695zM99.513 96.722l1.703-1.694 1.694 1.702-1.703 1.694z"/></g><g><path fill-rule="evenodd" clip-rule="evenodd" fill="#B2B2B2" d="m52.672 55.118.017-13.158 67.273.088-.017 13.158z"/><path fill-rule="evenodd" clip-rule="evenodd" fill="#B2B2B2" d="m119.95 55.204.006-5.36-67.273-.319-.008 5.599z"/><path fill-rule="evenodd" clip-rule="evenodd" fill="#ADEBF6" d="m110.622 55.195.017-13.159 1.965.003-.017 13.159zM103.824 55.178l.017-13.158 1.964.003-.017 13.158z"/><path fill-rule="evenodd" clip-rule="evenodd" fill="#333" d="m95.585 48.62 1.701-1.696 1.696 1.7-1.701 1.697zM91.524 48.556l1.7-1.696 1.696 1.701-1.7 1.696z"/></g><g><path fill-rule="evenodd" clip-rule="evenodd" fill="#333" d="M108.317 73.428v16.763H60.053c-4.46-.195-8.016-3.879-8.016-8.387a8.389 8.389 0 0 1 7.825-8.376h48.455z"/><path fill-rule="evenodd" clip-rule="evenodd" fill="#FFF" d="M108.317 74.64v14.339H61.169c-4.146 0-7.504-3.214-7.504-7.175 0-3.83 3.136-6.958 7.086-7.164h47.566z"/><path fill-rule="evenodd" clip-rule="evenodd" fill="#B2B2B2" d="m93.779 88.979.032-9.614-1.239.008v9.606z"/><path fill-rule="evenodd" clip-rule="evenodd" fill="#FF916E" d="m86.342 79.406 6.262-.041.106 16.784-3.155-2.655-3.107 2.695z"/><path fill-rule="evenodd" clip-rule="evenodd" fill="#FF916E" d="m86.409 89.189 6.262-.042.02 2.942-6.263.042z" opacity=".5"/></g><g><path fill="#333" d="M139.744 76.825h-14.376a.385.385 0 0 1 0-.769h14.376a.384.384 0 0 1 0 .769zM138.513 82.049h-2.321a.385.385 0 1 1 0-.768h2.321a.384.384 0 1 1 0 .768zM131.919 82.049h-8.755a.384.384 0 0 1 0-.768h8.755a.385.385 0 0 1 0 .768zM142.636 85.486h-10.568a.384.384 0 0 1 0-.768h10.568a.385.385 0 1 1 0 .768z"/></g><g><path fill="#333" d="M49.642 106.671h-10.15a.384.384 0 0 1 0-.768h10.15a.384.384 0 0 1 0 .768zM42.001 101.446h-1.64a.384.384 0 0 1 0-.768h1.64a.385.385 0 1 1 0 .768zM51.198 101.446h-6.182a.383.383 0 1 1 0-.768h6.182a.384.384 0 0 1 0 .768zM44.912 98.01H37.45a.385.385 0 1 1 0-.769h7.462a.384.384 0 0 1 0 .769z"/></g><g><path fill="#333" d="M49.898 71.421h-7.999a.383.383 0 0 1 0-.768h7.999a.384.384 0 1 1 0 .768zM43.876 66.196h-1.291a.384.384 0 1 1 0-.768h1.291a.385.385 0 1 1 0 .768zM51.124 66.196h-4.871a.383.383 0 0 1 0-.768h4.871a.384.384 0 0 1 0 .768zM46.17 62.76h-5.88a.385.385 0 0 1 0-.769h5.88a.385.385 0 1 1 0 .769z"/></g><g><path fill="#333" d="M136.878 112.291h-9.081a.384.384 0 0 1 0-.769h9.081a.384.384 0 1 1 0 .769zM136.101 117.514h-1.466a.384.384 0 1 1 0-.769h1.466a.385.385 0 0 1 0 .769zM131.936 117.514h-5.53a.385.385 0 0 1 0-.769h5.53a.385.385 0 0 1 0 .769zM138.706 120.952h-6.676a.384.384 0 0 1 0-.768h6.676a.384.384 0 0 1 0 .768z"/></g><g><path fill="#333" d="M143.525 94.499h-3.883a.385.385 0 0 1 0-.769h3.883a.385.385 0 1 1 0 .769z"/><path fill="#333" d="M141.499 96.609a.385.385 0 0 1-.384-.385v-4.391a.384.384 0 0 1 .768 0v4.391a.385.385 0 0 1-.384.385z"/></g><g><path fill="#333" d="M51.585 117.354H47.7a.383.383 0 1 1 0-.768h3.885a.385.385 0 0 1 0 .768z"/><path fill="#333" d="M49.557 119.466a.385.385 0 0 1-.384-.384v-4.392a.385.385 0 0 1 .769 0v4.392a.385.385 0 0 1-.385.384z"/></g><g><path fill="#333" d="M44.67 88.246h-3.884a.385.385 0 1 1 0-.768h3.884a.385.385 0 1 1 0 .768z"/><path fill="#333" d="M42.644 90.356a.383.383 0 0 1-.384-.383v-4.392a.384.384 0 0 1 .768 0v4.392a.384.384 0 0 1-.384.383z"/></g><g><path fill="#333" d="M130.61 67.791h-3.884a.384.384 0 1 1 0-.768h3.884a.385.385 0 1 1 0 .768z"/><path fill="#333" d="M128.583 69.902a.384.384 0 0 1-.384-.385v-4.39a.385.385 0 1 1 .768 0v4.39a.384.384 0 0 1-.384.385z"/></g></svg>